<?xml version="1.0" standalone="no"?>
<!DOCTYPE svg PUBLIC "-//W3C//DTD SVG 20010904//EN" "http://www.w3.org/TR/2001/REC-SVG-20010904/DTD/svg10.dtd">
<svg version="1.0" xmlns="http://www.w3.org/2000/svg" width="500.000000pt" height="500.000000pt"
        viewBox="0 0 500.000000 500.000000" preserveAspectRatio="xMidYMid meet">

        <g transform="translate(0.000000,500.000000) scale(0.100000,-0.100000)" fill="#262626" stroke="none">
                <path d="M0 2500 l0 -2500 2500 0 2500 0 0 2500 0 2500 -2500 0 -2500 0 0
-2500z m2390 2108 c0 -9 3 -9 12 0 15 15 32 16 23 2 -3 -5 -2 -10 4 -10 5 0
13 5 16 10 3 6 16 10 28 10 13 0 17 -3 10 -8 -6 -4 46 -8 115 -10 70 -1 136
-5 147 -9 11 -3 17 -2 12 3 -4 4 -26 11 -50 15 -28 5 -20 6 28 3 112 -9 275
-41 402 -80 124 -37 171 -57 118 -50 -16 2 -40 5 -53 5 -13 1 -21 4 -19 9 3 4
-18 8 -47 9 -50 1 -49 1 59 -38 131 -47 311 -133 415 -196 103 -64 223 -153
216 -161 -8 -7 34 -52 47 -52 6 0 0 12 -14 28 l-24 27 27 -24 c16 -14 26 -27
23 -29 -2 -3 45 -56 105 -118 292 -305 479 -653 559 -1044 23 -111 36 -236 22
-205 -5 11 -10 35 -10 53 -1 21 -5 31 -12 27 -7 -5 -8 6 -5 32 4 23 3 31 -2
19 -6 -14 -15 4 -36 75 -94 319 -180 515 -314 715 -137 203 -294 367 -497 516
-108 80 -232 151 -246 142 -8 -5 -9 -3 -4 6 6 10 4 12 -9 7 -9 -4 -15 -3 -12
1 5 9 -132 77 -217 108 -35 12 -45 20 -35 27 9 6 8 7 -5 3 -9 -3 -77 10 -150
28 -72 19 -175 40 -227 47 -110 16 -459 16 -535 1 -42 -9 -35 -9 40 -4 171 13
422 5 545 -17 146 -26 420 -105 407 -117 -2 -2 -35 7 -73 20 -93 33 -208 62
-329 83 -139 24 -480 24 -620 0 -214 -37 -409 -99 -577 -183 -50 -25 -90 -40
-93 -34 -5 9 7 14 27 12 3 -1 9 5 12 13 5 13 0 13 -27 -1 -46 -24 -157 -95
-157 -100 0 -3 5 -2 12 2 7 4 8 3 4 -4 -4 -6 -13 -9 -20 -6 -8 3 -17 0 -22 -7
-5 -8 -3 -10 7 -4 8 5 11 4 6 -1 -5 -5 -16 -9 -25 -9 -10 0 -16 -6 -14 -15 2
-8 0 -12 -3 -8 -11 11 -47 -11 -39 -24 4 -6 3 -8 -3 -5 -14 9 -158 -117 -246
-213 -68 -75 -90 -114 -40 -69 l28 24 -24 -27 c-13 -15 -28 -25 -33 -22 -9 6
-47 -34 -48 -50 0 -5 12 1 26 15 14 13 -2 -14 -37 -61 -35 -47 -72 -96 -82
-110 -10 -14 -15 -19 -11 -11 5 9 3 12 -4 7 -6 -4 -8 -14 -5 -23 5 -12 3 -14
-7 -8 -9 5 -11 4 -6 -3 8 -14 -18 -55 -28 -45 -4 4 -4 -1 0 -11 6 -15 4 -17
-6 -11 -8 5 -11 4 -6 -3 4 -6 -14 -51 -38 -99 -25 -48 -45 -84 -45 -80 -1 5 4
17 10 29 6 11 8 22 5 25 -16 17 -113 -265 -148 -432 -20 -98 -23 -137 -22
-365 0 -274 11 -375 61 -575 93 -373 319 -743 608 -997 342 -301 750 -464
1210 -484 319 -14 618 48 911 190 305 148 541 345 750 626 200 269 270 417
364 765 7 28 8 28 9 5 0 -14 -6 -59 -13 -100 -8 -41 -12 -77 -10 -79 2 -2 4 2
5 10 0 8 4 6 10 -6 7 -15 8 -12 4 15 -4 31 -4 32 5 11 12 -27 -7 -113 -47
-220 -13 -35 -22 -65 -20 -68 2 -2 15 24 28 58 12 35 25 57 27 51 6 -19 -83
-217 -149 -333 -378 -661 -1111 -1078 -1834 -1044 -248 12 -438 46 -645 117
-409 141 -758 404 -1015 766 -20 28 -35 52 -32 52 2 0 27 -30 54 -67 71 -98
176 -215 231 -258 30 -24 18 -9 -35 43 -83 82 -181 199 -222 265 -12 21 -27
35 -31 32 -5 -3 -12 0 -16 6 -4 8 -3 9 4 5 18 -11 14 6 -9 34 l-20 25 11 -25
c10 -23 10 -24 -4 -7 -8 11 -12 26 -9 35 4 9 2 13 -4 9 -6 -4 -10 1 -9 11 0 9
-4 16 -11 15 -8 -2 -10 4 -6 14 4 11 3 14 -5 9 -8 -5 -10 -1 -5 10 5 13 3 15
-7 9 -8 -5 -11 -4 -7 3 9 14 -3 43 -14 36 -5 -3 -6 3 -2 12 5 13 3 15 -7 9 -8
-5 -11 -4 -7 2 9 14 -36 116 -46 106 -5 -4 -5 1 -1 11 5 13 4 17 -3 13 -7 -5
-9 1 -5 15 3 14 1 19 -6 14 -7 -4 -10 -2 -7 6 5 16 -49 171 -57 163 -3 -3 -3
6 0 21 3 19 1 25 -6 20 -8 -4 -10 -2 -6 7 3 8 -2 41 -10 73 -25 97 -45 233
-56 370 -30 370 21 668 171 997 28 61 52 122 53 134 0 12 5 25 9 29 4 5 5 0 1
-11 -10 -28 0 -16 21 24 11 22 12 31 4 25 -15 -9 26 63 82 147 56 84 148 195
225 275 64 65 49 46 -51 -66 -22 -24 -32 -38 -22 -30 10 7 61 62 114 121 86
98 179 184 158 148 -4 -8 5 0 21 18 32 35 205 147 334 216 186 100 440 183
658 216 155 23 172 24 172 9z m217 6 c-3 -3 -12 -4 -19 -1 -8 3 -5 6 6 6 11 1
17 -2 13 -5z m50 0 c-3 -3 -12 -4 -19 -1 -8 3 -5 6 6 6 11 1 17 -2 13 -5z
m683 -150 c23 -9 39 -18 37 -20 -2 -3 -24 4 -48 15 -54 24 -45 27 11 5z m54
-36 c-5 -8 -2 -9 10 -5 23 9 119 -40 110 -55 -5 -8 -2 -9 10 -5 11 5 15 3 10
-5 -5 -8 -2 -9 10 -5 11 5 15 3 10 -5 -5 -8 -1 -9 12 -4 10 4 15 4 11 0 -4 -4
1 -13 11 -21 9 -7 -36 12 -100 44 -73 36 -113 60 -105 65 17 11 19 10 11 -4z
m-104 -78 c8 -5 11 -10 5 -10 -5 0 -17 5 -25 10 -8 5 -10 10 -5 10 6 0 17 -5
25 -10z m70 -30 c19 -11 31 -19 25 -19 -5 0 -26 8 -45 19 -19 11 -30 19 -25
19 6 0 26 -8 45 -19z m290 -36 c0 -2 -9 0 -20 6 -11 6 -20 13 -20 16 0 2 9 0
20 -6 11 -6 20 -13 20 -16z m77 -47 c24 -17 41 -32 38 -35 -4 -4 -105 68 -105
76 0 5 18 -6 67 -41z m-2177 1 c0 -6 -3 -8 -7 -5 -3 4 -11 0 -17 -8 -6 -9 -22
-17 -36 -20 -24 -4 -24 -3 -6 10 10 8 22 12 26 10 5 -3 10 2 14 10 6 18 26 20
26 3z m-86 -46 c3 -5 -1 -9 -9 -9 -8 0 -12 4 -9 9 3 4 7 8 9 8 2 0 6 -4 9 -8z
m1333 -135 c13 -14 16 -162 4 -186 -8 -15 -21 -21 -44 -21 -67 0 -232 -31
-247 -45 -20 -21 -22 -317 -2 -353 17 -30 46 -40 166 -57 57 -8 103 -20 107
-27 5 -7 9 -50 9 -96 0 -97 6 -93 -142 -116 -113 -18 -134 -28 -142 -70 -24
-118 -17 -311 12 -346 13 -16 44 -24 146 -40 75 -11 133 -25 138 -32 4 -7 8
-50 8 -95 l0 -83 -37 -15 c-20 -9 -72 -22 -116 -29 -43 -8 -81 -16 -84 -19
-11 -12 9 -25 49 -31 77 -12 173 -38 180 -50 10 -15 10 -168 0 -184 -5 -7 -47
-17 -98 -23 -49 -5 -113 -17 -141 -25 -65 -18 -68 -24 -67 -199 1 -193 3 -195
179 -223 55 -8 103 -20 107 -26 4 -6 8 -47 8 -91 0 -44 -4 -85 -8 -91 -4 -6
-29 -14 -57 -18 -127 -17 -186 -30 -204 -47 -25 -23 -34 -109 -29 -264 3 -97
6 -119 21 -130 17 -12 106 -29 224 -41 62 -6 63 -7 69 -41 9 -50 0 -153 -15
-163 -36 -22 -514 -23 -550 -1 -7 5 -15 60 -21 147 -12 174 -10 1324 2 1382
11 50 28 61 135 87 40 9 71 20 68 24 -2 4 -30 13 -62 20 -106 24 -132 39 -140
79 -11 53 -8 1438 3 1492 8 38 14 46 39 52 42 9 522 5 532 -5z m1139 -29 l29
-33 -32 29 c-31 28 -38 36 -30 36 2 0 16 -15 33 -32z m-3245 -775 c-12 -20
-14 -14 -5 12 4 9 9 14 11 11 3 -2 0 -13 -6 -23z m3806 -415 c-3 -7 -5 -2 -5
12 0 14 2 19 5 13 2 -7 2 -19 0 -25z m10 -55 c-3 -10 -5 -4 -5 12 0 17 2 24 5
18 2 -7 2 -21 0 -30z m10 -70 c-3 -10 -5 -2 -5 17 0 19 2 27 5 18 2 -10 2 -26
0 -35z m10 -95 c-2 -13 -4 -3 -4 22 0 25 2 35 4 23 2 -13 2 -33 0 -45z m-23
-388 c3 -8 2 -37 -3 -65 -6 -36 -9 -42 -10 -20 -1 17 -4 25 -9 18 -6 -10 -7
244 -1 287 1 8 5 -34 9 -95 4 -60 10 -117 14 -125z m-4077 178 c-3 -8 -6 -5
-6 6 -1 11 2 17 5 13 3 -3 4 -12 1 -19z" />
                <path d="M2778 4593 c6 -2 18 -2 25 0 6 3 1 5 -13 5 -14 0 -19 -2 -12 -5z" />
                <path d="M2215 4555 c-250 -40 -517 -134 -725 -257 -146 -86 -253 -170 -385
-301 l-120 -120 115 109 c63 60 150 135 192 167 324 242 687 377 1097 406
l106 8 -100 1 c-55 0 -136 -6 -180 -13z" />
                <path d="M2075 4470 c-137 -32 -415 -133 -402 -147 2 -2 33 10 68 26 89 40
236 87 359 115 58 14 94 25 80 24 -14 0 -61 -8 -105 -18z" />
                <path d="M3038 4463 c7 -3 16 -2 19 1 4 3 -2 6 -13 5 -11 0 -14 -3 -6 -6z" />
                <path d="M3115 4440 c27 -12 43 -12 25 0 -8 5 -22 9 -30 9 -10 0 -8 -3 5 -9z" />
                <path d="M3510 4310 c8 -6 56 -36 107 -68 51 -31 114 -73 140 -92 54 -39 69
-47 59 -32 -11 17 -208 148 -266 176 -30 14 -48 22 -40 16z" />
                <path d="M1129 4083 l-34 -38 38 34 c34 33 42 41 34 41 -2 0 -19 -17 -38 -37z" />
                <path d="M3810 4076 c0 -2 8 -10 18 -17 15 -13 16 -12 3 4 -13 16 -21 21 -21
13z" />
                <path d="M3920 3975 c19 -19 36 -35 39 -35 3 0 -10 16 -29 35 -19 19 -36 35
-39 35 -3 0 10 -16 29 -35z" />
                <path d="M4025 3870 c27 -27 51 -50 54 -50 3 0 -17 23 -44 50 -27 28 -51 50
-54 50 -3 0 17 -22 44 -50z" />
                <path d="M894 3838 c-44 -51 -57 -68 -52 -68 3 0 22 20 42 45 38 46 45 63 10
23z" />
                <path d="M954 3838 l-19 -23 23 19 c21 18 27 26 19 26 -2 0 -12 -10 -23 -22z" />
                <path d="M4100 3785 c13 -14 26 -25 28 -25 3 0 -5 11 -18 25 -13 14 -26 25
-28 25 -3 0 5 -11 18 -25z" />
                <path d="M819 3743 c-13 -16 -12 -17 4 -4 9 7 17 15 17 17 0 8 -8 3 -21 -13z" />
                <path d="M4130 3746 c0 -2 8 -10 18 -17 15 -13 16 -12 3 4 -13 16 -21 21 -21
13z" />
                <path d="M930 3710 c-8 -5 -12 -12 -9 -15 4 -3 12 1 19 10 14 17 11 19 -10 5z" />
                <path d="M4160 3706 c0 -2 8 -10 18 -17 15 -13 16 -12 3 4 -13 16 -21 21 -21
13z" />
                <path d="M900 3670 c-8 -5 -12 -12 -9 -15 4 -3 12 1 19 10 14 17 11 19 -10 5z" />
                <path d="M720 3590 c-6 -11 -8 -20 -6 -20 3 0 10 9 16 20 6 11 8 20 6 20 -3 0
-10 -9 -16 -20z" />
                <path d="M4337 3425 c9 -19 18 -33 21 -31 4 5 -26 66 -33 66 -3 0 3 -16 12
-35z" />
                <path d="M725 3379 c-4 -6 -5 -12 -2 -15 2 -3 7 2 10 11 7 17 1 20 -8 4z" />
                <path d="M4467 3106 c-10 -24 -9 -28 4 -20 8 4 9 -1 4 -17 -6 -19 -5 -21 5
-12 9 8 9 20 3 39 -8 24 -10 25 -16 10z" />
                <path d="M4487 3043 c-4 -3 -7 -11 -7 -17 0 -6 5 -5 12 2 6 6 9 14 7 17 -3 3
-9 2 -12 -2z" />
                <path d="M4496 3005 c-3 -8 -1 -15 4 -15 6 0 10 7 10 15 0 8 -2 15 -4 15 -2 0
-6 -7 -10 -15z" />
                <path d="M4511 2964 c0 -11 3 -14 6 -6 3 7 2 16 -1 19 -3 4 -6 -2 -5 -13z" />
                <path d="M4522 2920 c0 -14 2 -19 5 -12 2 6 2 18 0 25 -3 6 -5 1 -5 -13z" />
                <path d="M4532 2870 c0 -14 2 -19 5 -12 2 6 2 18 0 25 -3 6 -5 1 -5 -13z" />
                <path d="M4376 1615 c-9 -26 -7 -32 5 -12 6 10 9 21 6 23 -2 3 -7 -2 -11 -11z" />
                <path d="M780 1430 c6 -11 13 -20 16 -20 2 0 0 9 -6 20 -6 11 -13 20 -16 20
-2 0 0 -9 6 -20z" />
                <path d="M860 1306 c0 -2 8 -10 18 -17 15 -13 16 -12 3 4 -13 16 -21 21 -21
13z" />
                <path d="M905 1250 c10 -11 20 -20 23 -20 3 0 -3 9 -13 20 -10 11 -20 20 -23
20 -3 0 3 -9 13 -20z" />
                <path d="M967 1175 c23 -27 74 -81 115 -120 61 -59 58 -55 -22 30 -130 138
-139 147 -93 90z" />
                <path d="M3450 4395 c25 -13 50 -24 55 -24 6 0 -10 11 -35 24 -25 13 -49 24
-55 24 -5 0 10 -11 35 -24z" />
        </g>
</svg>