<?xml version="1.0" standalone="no"?>
<!DOCTYPE svg PUBLIC "-//W3C//DTD SVG 20010904//EN" "http://www.w3.org/TR/2001/REC-SVG-20010904/DTD/svg10.dtd">
<svg version="1.0" xmlns="http://www.w3.org/2000/svg" width="500.000000pt" height="500.000000pt"
    viewBox="0 0 500.000000 500.000000" preserveAspectRatio="xMidYMid meet">

    <g transform="translate(0.000000,500.000000) scale(0.100000,-0.100000)" fill="#0d0d0d" stroke="none">
        <path d="M0 2500 l0 -2500 2500 0 2500 0 0 2500 0 2500 -2500 0 -2500 0 0
-2500z m2715 1790 c19 -16 21 -160 3 -178 -7 -7 -25 -12 -42 -12 -16 0 -70 -5
-119 -12 -131 -16 -130 -13 -125 -205 4 -183 4 -184 120 -202 40 -6 91 -15
113 -19 l40 -7 3 -83 c2 -49 -2 -89 -8 -97 -5 -7 -36 -15 -68 -19 -96 -11
-161 -28 -179 -49 -16 -16 -18 -40 -18 -171 0 -102 4 -158 12 -173 14 -23 65
-37 183 -49 99 -10 100 -11 100 -109 0 -82 -1 -85 -27 -98 -16 -8 -58 -20 -96
-27 -72 -13 -92 -26 -55 -35 13 -2 57 -13 98 -22 l75 -18 3 -85 c1 -47 -2 -91
-6 -97 -5 -8 -57 -19 -122 -28 -153 -20 -156 -23 -165 -131 -7 -81 -3 -175 11
-228 7 -28 45 -41 167 -58 102 -14 100 -11 95 -128 l-3 -75 -106 -16 c-141
-22 -146 -24 -159 -65 -12 -36 -16 -290 -5 -325 9 -28 33 -35 165 -50 63 -7
118 -17 122 -23 4 -6 8 -46 8 -89 0 -75 -1 -78 -27 -88 -32 -12 -455 -17 -489
-5 -12 3 -25 17 -29 29 -24 77 -28 1388 -5 1439 10 22 28 33 81 50 38 12 66
24 63 27 -3 3 -33 15 -67 26 -49 16 -65 26 -76 50 -12 24 -15 108 -17 425 -2
404 9 964 21 1012 9 35 24 37 298 33 155 -2 221 -6 232 -15z m-1684 -805 c46
-16 88 -48 115 -90 32 -48 44 -127 44 -282 l0 -153 -100 0 -100 0 0 161 0 161
-29 29 c-25 24 -38 29 -80 29 -72 0 -102 -28 -112 -106 -10 -77 -10 -881 0
-958 9 -75 40 -106 106 -106 111 0 125 27 125 235 l0 155 100 0 100 0 0 -138
c0 -301 -49 -384 -244 -413 -141 -21 -285 18 -334 91 -47 69 -51 111 -58 489
-3 196 -2 438 3 537 8 174 10 184 38 240 37 71 91 112 172 131 69 15 191 9
254 -12z m3111 -1 c25 -8 62 -31 81 -51 58 -57 70 -104 75 -300 l4 -173 -96 0
-96 0 0 145 c0 205 -16 235 -125 235 -59 0 -94 -30 -106 -90 -11 -60 -11 -189
1 -270 13 -90 37 -111 164 -140 207 -47 266 -141 266 -420 -1 -321 -70 -410
-321 -410 -167 0 -245 45 -286 165 -14 39 -18 85 -18 215 l0 165 93 3 92 3 0
-138 c0 -204 16 -242 108 -251 67 -6 108 16 121 66 17 57 14 270 -4 329 -18
62 -34 73 -150 102 -159 41 -217 86 -252 198 -21 67 -20 383 1 457 30 102 92
156 202 176 65 12 190 4 246 -16z m-2600 -311 l3 -318 102 -3 103 -3 2 318 3
318 98 3 97 3 0 -108 c1 -97 1 -1004 0 -1261 l0 -103 -97 3 -98 3 -3 328 -2
328 -103 -3 -102 -3 -3 -327 -2 -328 -100 0 -100 0 0 735 0 735 100 0 100 0 2
-317z m1841 283 c120 -58 141 -135 135 -476 -6 -259 -11 -282 -80 -354 -27
-28 -48 -54 -48 -58 0 -5 31 -118 69 -251 38 -133 73 -254 76 -269 l7 -28
-105 0 -104 0 -31 118 c-17 64 -48 183 -69 265 l-38 147 -42 0 -43 0 0 -265 0
-265 -100 0 -100 0 0 736 0 735 208 -3 c205 -3 208 -3 265 -32z m1355 -2139
c40 -139 47 -157 63 -152 32 10 22 -23 -11 -40 -27 -14 -31 -14 -36 -1 -5 12
-13 8 -39 -19 -32 -35 -69 -44 -110 -29 -17 7 -48 63 -59 107 -17 72 36 151
103 152 22 0 38 2 36 5 -2 3 -8 24 -14 47 -9 34 -16 42 -33 40 -34 -3 -32 21
4 37 18 8 37 13 42 12 5 -1 29 -73 54 -159z m-4233 89 c19 -8 35 -18 35 -21 0
-3 -37 -69 -82 -146 -61 -106 -78 -143 -68 -149 7 -4 10 -15 7 -24 -6 -15 -9
-15 -37 -1 -16 8 -30 22 -30 30 0 11 -12 15 -45 15 -83 0 -116 60 -76 138 50
98 143 128 205 66 l25 -26 21 42 c16 30 19 45 11 53 -11 11 -15 37 -6 37 3 0
21 -7 40 -14z m3884 -208 c42 -187 39 -178 62 -178 32 0 21 -26 -16 -37 -19
-6 -37 -8 -39 -5 -2 4 -19 74 -37 156 -29 129 -36 149 -56 157 -29 11 -29 23
0 37 49 24 52 20 86 -130z m-3740 31 c27 -10 32 -15 27 -35 -6 -23 -6 -23 28
-9 52 22 106 -1 75 -32 -8 -8 -19 -7 -40 1 -46 17 -77 -7 -122 -92 -35 -67
-57 -86 -72 -62 -3 5 15 50 40 101 33 65 43 95 36 102 -10 10 -15 37 -7 37 1
0 18 -5 35 -11z m356 -29 c0 -18 -6 -26 -23 -28 -27 -4 -40 22 -22 44 19 22
45 13 45 -16z m3205 -53 c0 -17 -8 -25 -32 -32 -52 -15 -61 -47 -43 -141 19
-99 19 -96 -7 -92 -20 3 -25 13 -35 73 -7 39 -15 85 -18 103 -4 23 -11 32 -25
32 -32 0 -23 28 11 35 23 5 34 3 43 -11 13 -17 14 -16 20 4 7 22 49 51 74 52
6 0 12 -10 12 -23z m-3268 -20 l26 -12 -44 -98 c-35 -79 -40 -99 -29 -104 8
-3 15 -12 15 -20 0 -12 -7 -14 -32 -9 -18 3 -37 11 -42 16 -6 6 6 43 32 101
38 83 41 94 27 109 -26 29 -1 38 47 17z m642 -43 c-1 -5 -14 -51 -29 -102 -15
-51 -24 -96 -21 -99 3 -3 24 6 46 20 26 18 37 32 34 42 -8 21 15 27 61 17 44
-9 55 -35 17 -40 -13 -2 -44 -16 -67 -31 l-44 -28 29 -61 c16 -34 34 -62 40
-62 5 0 10 -7 10 -16 0 -11 -8 -14 -27 -12 -23 2 -33 14 -59 68 -17 36 -37 65
-44 65 -7 0 -21 -22 -30 -50 -12 -37 -22 -51 -38 -53 -12 -2 -22 -1 -22 3 0 4
21 76 47 162 42 140 45 156 30 164 -9 5 -14 15 -11 23 6 15 80 6 78 -10z
m-440 -14 c14 -5 26 -17 26 -25 0 -12 4 -14 19 -5 34 18 80 12 106 -15 31 -30
31 -33 -2 -129 -20 -58 -24 -81 -15 -84 6 -2 12 -11 12 -19 0 -12 -8 -14 -36
-10 -20 3 -38 8 -41 10 -2 3 10 41 27 86 36 94 36 122 -2 135 -27 9 -88 -8
-88 -24 0 -5 -14 -44 -30 -88 -26 -68 -34 -79 -50 -75 -11 3 -20 8 -20 12 0 3
16 49 36 101 30 79 33 96 21 105 -14 10 -12 35 3 35 5 0 20 -4 34 -10z m2747
-20 c46 -25 64 -121 34 -184 -19 -40 -66 -68 -116 -70 -120 -3 -140 207 -24
254 28 12 83 12 106 0z m-1512 -87 c-4 -27 -8 -58 -8 -71 -1 -22 0 -22 29 -7
38 19 70 19 99 -2 23 -16 24 -19 18 -110 -5 -77 -4 -95 8 -99 32 -13 16 -34
-25 -34 -46 0 -44 -5 -29 109 12 92 6 111 -41 111 -52 0 -69 -26 -83 -125 -11
-81 -15 -90 -35 -93 -27 -4 -27 -10 -2 153 24 160 25 185 5 185 -8 0 -15 7
-15 15 0 11 11 15 43 15 l44 0 -8 -47z m1211 26 c0 -6 -8 -18 -19 -27 -11 -10
-29 -60 -46 -124 -18 -71 -32 -108 -41 -108 -8 0 -17 -1 -21 -2 -4 -2 -23 39
-43 91 -34 87 -37 92 -44 65 -37 -154 -48 -184 -70 -184 -18 0 -27 16 -56 96
-23 64 -41 98 -52 102 -10 2 -18 13 -18 23 0 11 7 19 18 19 9 0 34 3 55 6 40
7 51 -9 21 -31 -15 -10 -14 -18 7 -83 12 -39 24 -70 26 -68 2 2 16 48 31 102
22 80 31 100 47 102 16 2 24 -9 44 -65 46 -130 41 -127 62 -48 23 86 23 95 3
95 -9 0 -14 7 -12 18 4 23 108 44 108 21z m-1472 -41 c-3 -42 -2 -43 30 -46
44 -4 36 -26 -11 -30 -39 -3 -39 -3 -57 -95 -14 -72 -9 -89 27 -85 38 4 37
-23 0 -33 -36 -10 -73 4 -81 29 -4 10 0 51 9 91 19 90 19 101 0 101 -8 0 -15
7 -15 15 0 9 9 15 21 15 15 0 25 11 36 40 22 55 44 53 41 -2z m735 -66 c44
-39 -10 -104 -99 -118 -48 -7 -56 -23 -28 -62 18 -26 61 -29 90 -7 21 16 54
20 54 6 0 -22 -64 -54 -107 -55 -38 -1 -49 4 -70 28 -22 26 -25 37 -21 88 5
67 27 104 79 131 37 19 73 15 102 -11z" />
        <path d="M3110 3020 l0 -290 65 0 c138 0 146 16 146 290 0 277 -6 290 -140
290 l-71 0 0 -290z" />
        <path d="M4633 1300 c-27 -11 -43 -40 -43 -80 0 -40 25 -99 45 -106 25 -10 64
5 81 32 16 23 16 29 -1 89 -19 73 -34 84 -82 65z" />
        <path d="M296 1289 c-57 -45 -73 -117 -31 -145 42 -27 81 -11 115 49 36 62 37
81 8 101 -31 22 -60 20 -92 -5z" />
        <path d="M3803 1020 c-37 -15 -56 -55 -50 -106 5 -51 30 -84 62 -84 32 0 72
35 80 69 8 39 -11 108 -35 121 -22 12 -28 12 -57 0z" />
        <path d="M2741 844 c-32 -40 -28 -58 11 -50 75 15 105 68 42 74 -25 2 -37 -3
-53 -24z" />
    </g>
</svg>